HIERARCHY
ROOT Hips
{
	OFFSET 0.00000 0.00000 0.00000
	CHANNELS 6 Xposition Yposition Zposition Zrotation Yrotation Xrotation 
	JOINT LHipJoint
	{
		OFFSET 0 0 0
		CHANNELS 3 Zrotation Yrotation Xrotation
		JOINT LeftUpLeg
		{
			OFFSET 1.84395 -1.68683 0.74144
			CHANNELS 3 Zrotation Yrotation Xrotation
			JOINT LeftLeg
			{
				OFFSET 2.27037 -6.23779 0.00000
				CHANNELS 3 Zrotation Yrotation Xrotation
				JOINT LeftFoot
				{
					OFFSET 2.56918 -7.05877 0.00000
					CHANNELS 3 Zrotation Yrotation Xrotation
					JOINT LeftToeBase
					{
						OFFSET 0.22276 -0.61202 1.71784
						CHANNELS 3 Zrotation Yrotation Xrotation
						End Site
						{
							OFFSET 0.00000 -0.00000 0.91613
						}
					}
				}
			}
		}
	}
	JOINT RHipJoint
	{
		OFFSET 0 0 0
		CHANNELS 3 Zrotation Yrotation Xrotation
		JOINT RightUpLeg
		{
			OFFSET -1.76833 -1.68684 0.74144
			CHANNELS 3 Zrotation Yrotation Xrotation
			JOINT RightLeg
			{
				OFFSET -2.49360 -6.85110 0.00000
				CHANNELS 3 Zrotation Yrotation Xrotation
				JOINT RightFoot
				{
					OFFSET -2.55538 -7.02085 0.00000
					CHANNELS 3 Zrotation Yrotation Xrotation
					JOINT RightToeBase
					{
						OFFSET -0.21516 -0.59115 1.68050
						CHANNELS 3 Zrotation Yrotation Xrotation
						End Site
						{
							OFFSET -0.00000 -0.00000 0.89604
						}
					}
				}
			}
		}
	}
	JOINT LowerBack
	{
		OFFSET 0 0 0
		CHANNELS 3 Zrotation Yrotation Xrotation
		JOINT Spine
		{
			OFFSET 0.06382 1.72312 -0.19613
			CHANNELS 3 Zrotation Yrotation Xrotation
			JOINT Spine1
			{
				OFFSET -0.00055 1.73507 0.23859
				CHANNELS 3 Zrotation Yrotation Xrotation
				JOINT Neck
				{
					OFFSET 0 0 0
					CHANNELS 3 Zrotation Yrotation Xrotation
					JOINT Neck1
					{
						OFFSET 0.03638 1.65562 0.09633
						CHANNELS 3 Zrotation Yrotation Xrotation
						JOINT Head
						{
							OFFSET 0.06388 1.62807 -0.32386
							CHANNELS 3 Zrotation Yrotation Xrotation
							End Site
							{
								OFFSET 0.00995 1.67644 -0.12021
							}
						}
					}
				}
				JOINT LeftShoulder
				{
					OFFSET 0 0 0
					CHANNELS 3 Zrotation Yrotation Xrotation
					JOINT LeftArm
					{
						OFFSET 3.09648 1.42991 0.28122
						CHANNELS 3 Zrotation Yrotation Xrotation
						JOINT LeftForeArm
						{
							OFFSET 5.11878 -0.00000 -0.00000
							CHANNELS 3 Zrotation Yrotation Xrotation
							JOINT LeftHand
							{
								OFFSET 3.59971 -0.00000 0.00000
								CHANNELS 3 Zrotation Yrotation Xrotation
								JOINT LeftFingerBase
								{
									OFFSET 0 0 0
									CHANNELS 3 Zrotation Yrotation Xrotation
									JOINT LeftHandIndex1
									{
										OFFSET 0.62877 -0.00000 0.00000
										CHANNELS 3 Zrotation Yrotation Xrotation
										End Site
										{
											OFFSET 0.50693 -0.00000 0.00000
										}
									}
								}
								JOINT LThumb
								{
									OFFSET 0 0 0
									CHANNELS 3 Zrotation Yrotation Xrotation
									End Site
									{
										OFFSET 0.51467 -0.00000 0.51467
									}
								}
							}
						}
					}
				}
				JOINT RightShoulder
				{
					OFFSET 0 0 0
					CHANNELS 3 Zrotation Yrotation Xrotation
					JOINT RightArm
					{
						OFFSET -3.33565 1.14597 0.05047
						CHANNELS 3 Zrotation Yrotation Xrotation
						JOINT RightForeArm
						{
							OFFSET -5.49020 -0.00000 0.00000
							CHANNELS 3 Zrotation Yrotation Xrotation
							JOINT RightHand
							{
								OFFSET -3.20659 -0.00000 -0.00000
								CHANNELS 3 Zrotation Yrotation Xrotation
								JOINT RightFingerBase
								{
									OFFSET 0 0 0
									CHANNELS 3 Zrotation Yrotation Xrotation
									JOINT RightHandIndex1
									{
										OFFSET -0.69188 -0.00000 0.00000
										CHANNELS 3 Zrotation Yrotation Xrotation
										End Site
										{
											OFFSET -0.55781 -0.00000 0.00000
										}
									}
								}
								JOINT RThumb
								{
									OFFSET 0 0 0
									CHANNELS 3 Zrotation Yrotation Xrotation
									End Site
									{
										OFFSET -0.56633 -0.00000 0.56633
									}
								}
							}
						}
					}
				}
			}
		}
	}
}
MOTION
Frames: 9
Frame Time: .0083333
0.8186 17.4477 8.4487 0 0 0 0 0 0 -21 0 0 0 0 0 0 0 0 0 0 0 0 0 0 21 0 0 0 0 0 0 0 0 0 0 0 0 0 0 0 0 0 0 0 0 0 0 -16 0 0 21 0 0 11 0 0 0 -8 0 0 0 0 0 0 0 0 0 0 0 0 0 0 0 0 0 0 0 0 8 0 0 0 0 0 0 0 0 0 0 0 0 0 0 0 0 0
0.8186 17.4477 8.4487 -10.2898 -0.9059 8.4863 0.0000 0.0000 0.0000 -12.1756 -35.2676 17.9204 0.0365 -1.2334 -3.3911 -4.7734 38.3154 -32.9341 0.0537 1.4948 4.1115 0.0000 0.0000 0.0000 29.2465 24.5471 3.3497 -0.0955 -1.9925 5.4851 0.5318 -16.1470 -16.5051 -0.0275 1.0702 -2.9420 10.8056 -0.3083 -0.3542 -1.1160 0.2107 -12.7807 -7.3097 -1.2565 -13.9986 -9.9110 -12.4304 6.5818 13.6720 -19.6375 17.1939 4.9230 -9.7126 6.5028 -0.0000 0.0000 0.0000 -86.1003 16.5640 -0.1466 12.7939 -20.9844 -2.3790 -0.0000 -0.0000 23.5339 13.8969 -9.3417 -2.2998 -7.1250 0.0000 -0.0000 -9.3315 20.4198 5.5627 -0.0000 0.0000 0.0000 98.0874 -16.8457 -8.3286 -14.2339 23.0681 -2.9191 0.0000 0.0000 36.3393 15.5774 -33.9840 -8.8570 7.1250 -0.0000 -0.0000 51.5519 -56.3672 -17.5825
0.8197 17.4432 8.4593 -10.3245 -0.9151 8.5454 0.0000 0.0000 0.0000 -12.4470 -35.7679 18.4898 0.0422 -1.3257 -3.6453 -4.9179 38.8136 -33.5108 0.0669 1.6690 4.5917 0.0000 0.0000 0.0000 29.2314 24.3927 3.3417 -0.0897 -1.9315 5.3163 0.5274 -16.0620 -16.3954 -0.0358 1.2212 -3.3576 6.5137 -0.5380 -2.6353 2.7038 -0.3880 -9.6309 -0.7449 -0.5759 -8.7400 -12.8377 -13.3287 -1.5875 12.0816 -19.7368 17.0305 4.1705 -9.5778 8.0049 0.0000 -0.0000 0.0000 -94.3463 8.9821 -10.3081 12.3991 -20.4005 -2.2395 -0.0000 -0.0000 32.0902 14.0678 -10.2941 -2.5640 -7.1250 0.0000 -0.0000 -9.1821 19.4444 5.6746 0.0000 -0.0000 0.0000 91.1320 -9.9815 -6.6532 -13.4982 22.0129 -2.6371 0.0000 0.0000 34.9086 13.3448 -33.2762 -7.4156 7.1250 -0.0000 -0.0000 48.8963 -56.3486 -16.2975
0.8220 17.4405 8.4711 -10.3544 -0.9769 8.6206 0.0000 0.0000 0.0000 -12.8356 -36.4173 19.1823 0.0473 -1.4030 -3.8584 -4.9896 39.2968 -34.5580 0.0985 2.0236 5.5709 0.0000 0.0000 0.0000 29.2395 24.3954 3.4164 -0.0817 -1.8436 5.0735 0.5017 -16.0263 -16.7251 -0.0313 1.1427 -3.1414 6.5792 -0.5052 -2.6906 2.6906 -0.3476 -9.6459 -0.7976 -0.5617 -8.7238 -12.7138 -13.3468 -1.5527 11.9911 -19.7389 16.9105 4.1287 -9.5815 7.9366 0.0000 -0.0000 0.0000 -94.2444 8.8248 -11.1461 12.0596 -19.8939 -2.1225 -0.0000 -0.0000 32.3749 14.2906 -10.2212 -2.5880 -7.1250 0.0000 -0.0000 -9.0265 19.5061 5.5634 0.0000 -0.0000 0.0000 91.1922 -10.0504 -7.1121 -13.3991 21.8692 -2.6001 0.0000 0.0000 34.6945 12.3830 -33.0007 -6.8190 7.1250 -0.0000 -0.0000 47.7791 -56.3551 -15.7959
0.8250 17.4388 8.4847 -10.4283 -1.0262 8.7098 0.0000 0.0000 0.0000 -13.1030 -36.9034 19.7195 0.0503 -1.4469 -3.9794 -4.9706 39.5690 -35.5170 0.1296 2.3202 6.3914 0.0000 0.0000 0.0000 29.3298 24.5172 3.5710 -0.0731 -1.7445 4.8000 0.3602 -15.7414 -18.2132 -0.0002 0.0821 -0.2254 6.7202 -0.4615 -2.8052 2.6628 -0.2979 -9.6485 -0.9090 -0.5481 -8.6605 -12.7498 -13.3192 -1.3637 12.2002 -19.7277 16.6712 4.2194 -9.5781 7.8488 -0.0000 0.0000 0.0000 -94.1298 8.5388 -12.5087 11.6630 -19.2974 -1.9895 -0.0000 -0.0000 33.1665 14.4877 -10.2261 -2.6265 -7.1250 0.0000 -0.0000 -8.8869 19.4903 5.4784 -0.0000 0.0000 0.0000 91.2656 -10.0893 -7.5869 -13.3141 21.7456 -2.5685 0.0000 0.0000 34.9607 12.2761 -33.0893 -6.7748 7.1250 -0.0000 -0.0000 47.7759 -56.4413 -15.9013
0.8240 17.4420 8.5077 -10.3420 -1.0559 8.9158 0.0000 0.0000 0.0000 -13.4309 -37.3422 20.0374 0.0522 -1.4741 -4.0543 -4.9720 39.8149 -36.2406 0.1542 2.5304 6.9739 0.0000 0.0000 0.0000 29.2024 24.6830 3.6571 -0.0650 -1.6448 4.5250 0.4827 -16.1833 -17.3276 -0.0258 1.0366 -2.8496 6.6412 -0.4255 -3.2090 2.6000 -0.2921 -9.6651 -0.9373 -0.5374 -8.4399 -12.8011 -13.2729 -1.1446 12.4464 -19.7040 16.4640 4.3277 -9.5686 7.7703 0.0000 0.0000 0.0000 -94.0762 8.4701 -13.4658 11.5221 -19.0842 -1.9432 -0.0000 -0.0000 33.6006 14.6124 -10.1986 -2.6430 -7.1250 0.0000 -0.0000 -8.7993 19.5114 5.4189 0.0000 0.0000 0.0000 91.3125 -10.0808 -8.1118 -13.1273 21.4735 -2.4997 0.0000 0.0000 35.1051 12.1327 -33.2537 -6.7231 7.1250 -0.0000 -0.0000 47.8187 -56.5896 -16.1045
0.8240 17.4464 8.5341 -10.4039 -1.0030 9.1630 0.0000 0.0000 0.0000 -13.4880 -37.7448 20.2341 0.0556 -1.5221 -4.1866 -5.0648 40.1438 -36.6540 0.1675 2.6364 7.2681 0.0000 0.0000 0.0000 29.2007 24.6126 3.6197 -0.0549 -1.5120 4.1589 0.4702 -16.1809 -17.5036 -0.0180 0.8667 -2.3821 6.6754 -0.4190 -3.7153 2.6170 -0.3279 -9.6797 -0.9431 -0.5508 -8.1641 -12.7363 -13.2395 -0.9839 12.4972 -19.6713 16.3442 4.3535 -9.5564 7.6968 -0.0000 0.0000 0.0000 -94.0146 8.5856 -13.5203 11.4141 -18.9203 -1.9080 -0.0000 -0.0000 33.0458 14.7419 -9.8056 -2.5658 -7.1250 0.0000 -0.0000 -8.7168 19.9047 5.2894 -0.0000 0.0000 0.0000 91.2604 -10.0172 -8.5410 -12.8874 21.1220 -2.4125 0.0000 0.0000 34.9590 12.0400 -33.5360 -6.7203 7.1250 -0.0000 -0.0000 48.0289 -56.8114 -16.4762
0.8320 17.4424 8.5470 -10.9735 -0.8597 9.1601 0.0000 0.0000 0.0000 -12.8649 -37.6809 20.3499 0.0603 -1.5842 -4.3578 -5.1482 40.2485 -36.4697 0.1559 2.5443 7.0125 0.0000 0.0000 0.0000 29.8669 24.2961 3.7291 -0.0476 -1.4075 3.8707 0.4441 -16.0467 -17.6196 -0.0146 0.7798 -2.1431 7.3292 -0.4250 -3.7148 2.7469 -0.3207 -9.6601 -1.1670 -0.5897 -8.1622 -12.5823 -13.2601 -0.9313 12.3948 -19.6919 16.3276 4.3014 -9.5671 7.6580 0.0000 -0.0000 0.0000 -93.8774 8.6580 -13.4437 11.1688 -18.5465 -1.8292 -0.0000 -0.0000 32.3076 14.9827 -9.5642 -2.5461 -7.1250 0.0000 -0.0000 -8.5514 20.1381 5.1414 0.0000 -0.0000 0.0000 91.2515 -9.9753 -9.0066 -12.7403 20.9055 -2.3598 0.0000 0.0000 34.9838 12.1384 -33.7165 -6.8082 7.1250 -0.0000 -0.0000 48.3034 -56.9189 -16.7385
0.8385 17.4382 8.5534 -11.3034 -0.8002 9.1336 0.0000 0.0000 0.0000 -12.4756 -37.5486 20.3645 0.0623 -1.6103 -4.4298 -5.1523 40.2063 -36.3192 0.1456 2.4588 6.7753 0.0000 0.0000 0.0000 30.2662 24.2017 3.8527 -0.0446 -1.3631 3.7484 0.4457 -16.0400 -17.5836 -0.0186 0.8812 -2.4221 7.7067 -0.4259 -3.5981 2.8134 -0.3019 -9.6431 -1.3040 -0.6068 -8.2221 -12.4503 -13.2992 -0.9237 12.2860 -19.7321 16.3167 4.2441 -9.5863 7.6332 -0.0000 0.0000 0.0000 -93.7805 8.6946 -13.6817 10.9998 -18.2879 -1.7758 -0.0000 -0.0000 32.1513 15.2502 -9.4593 -2.5655 -7.1250 0.0000 -0.0000 -8.3633 20.2312 5.0082 -0.0000 0.0000 0.0000 91.3181 -9.9321 -9.6788 -12.6487 20.7703 -2.3272 0.0000 0.0000 35.3990 12.1774 -33.7200 -6.8312 7.1250 -0.0000 -0.0000 48.3411 -56.9130 -16.7489
